REM DIRINDEX 1\4,1\2\5,1\2\6,1\3\7,1\3\8
REM DIRNAME cjc124,folder01,folder02,folder03,folder04,folder05,folder06,folder07
TITLE ""
FILE "067_Day34_Check2_Phrases.mp3" MP3
  TRACK 01 AUDIO
    TITLE "0:"
    INDEX 01 00:00:00
  TRACK 02 AUDIO
    TITLE "4:cjc124_2181"
    INDEX 01 00:00:33
  TRACK 03 AUDIO
    TITLE "0:"
    INDEX 01 00:01:58
  TRACK 04 AUDIO
    TITLE "5:cjc124_2182"
    INDEX 01 00:02:22
  TRACK 05 AUDIO
    TITLE "0:"
    INDEX 01 00:04:23
  TRACK 06 AUDIO
    TITLE "6:cjc124_2183"
    INDEX 01 00:04:38
  TRACK 07 AUDIO
    TITLE "0:"
    INDEX 01 00:06:04
  TRACK 08 AUDIO
    TITLE "5:cjc124_2184"
    INDEX 01 00:06:49
  TRACK 09 AUDIO
    TITLE "0:"
    INDEX 01 00:08:13
  TRACK 10 AUDIO
    TITLE "6:cjc124_2185"
    INDEX 01 00:08:30
  TRACK 11 AUDIO
    TITLE "0:"
    INDEX 01 00:09:59
  TRACK 12 AUDIO
    TITLE "5:cjc124_2186"
    INDEX 01 00:10:23
  TRACK 13 AUDIO
    TITLE "0:"
    INDEX 01 00:12:03
  TRACK 14 AUDIO
    TITLE "6:cjc124_2187"
    INDEX 01 00:12:18
  TRACK 15 AUDIO
    TITLE "0:"
    INDEX 01 00:13:61
  TRACK 16 AUDIO
    TITLE "5:cjc124_2188"
    INDEX 01 00:14:23
  TRACK 17 AUDIO
    TITLE "0:"
    INDEX 01 00:15:58
  TRACK 18 AUDIO
    TITLE "6:cjc124_2189"
    INDEX 01 00:15:72
  TRACK 19 AUDIO
    TITLE "0:"
    INDEX 01 00:17:25
  TRACK 20 AUDIO
    TITLE "5:cjc124_2190"
    INDEX 01 00:17:63
  TRACK 21 AUDIO
    TITLE "0:"
    INDEX 01 00:19:71
  TRACK 22 AUDIO
    TITLE "6:cjc124_2191"
    INDEX 01 00:20:10
  TRACK 23 AUDIO
    TITLE "0:"
    INDEX 01 00:22:68
  TRACK 24 AUDIO
    TITLE "5:cjc124_2192"
    INDEX 01 00:23:36
  TRACK 25 AUDIO
    TITLE "0:"
    INDEX 01 00:24:65
  TRACK 26 AUDIO
    TITLE "6:cjc124_2193"
    INDEX 01 00:25:21
  TRACK 27 AUDIO
    TITLE "0:"
    INDEX 01 00:26:50
  TRACK 28 AUDIO
    TITLE "5:cjc124_2194"
    INDEX 01 00:27:12
  TRACK 29 AUDIO
    TITLE "0:"
    INDEX 01 00:29:42
  TRACK 30 AUDIO
    TITLE "6:cjc124_2195"
    INDEX 01 00:29:54
  TRACK 31 AUDIO
    TITLE "0:"
    INDEX 01 00:31:35
  TRACK 32 AUDIO
    TITLE "5:cjc124_2196"
    INDEX 01 00:32:03
  TRACK 33 AUDIO
    TITLE "0:"
    INDEX 01 00:33:21
  TRACK 34 AUDIO
    TITLE "6:cjc124_2197"
    INDEX 01 00:33:48
  TRACK 35 AUDIO
    TITLE "0:"
    INDEX 01 00:34:63
  TRACK 36 AUDIO
    TITLE "5:cjc124_2198"
    INDEX 01 00:35:29
  TRACK 37 AUDIO
    TITLE "0:"
    INDEX 01 00:36:74
  TRACK 38 AUDIO
    TITLE "6:cjc124_2199"
    INDEX 01 00:37:10
  TRACK 39 AUDIO
    TITLE "0:"
    INDEX 01 00:39:29
  TRACK 40 AUDIO
    TITLE "5:cjc124_2200"
    INDEX 01 00:39:64
  TRACK 41 AUDIO
    TITLE "0:"
    INDEX 01 00:41:30
  TRACK 42 AUDIO
    TITLE "6:cjc124_2201"
    INDEX 01 00:41:45
  TRACK 43 AUDIO
    TITLE "0:"
    INDEX 01 00:43:21
  TRACK 44 AUDIO
    TITLE "5:cjc124_2202"
    INDEX 01 00:43:58
  TRACK 45 AUDIO
    TITLE "0:"
    INDEX 01 00:45:49
  TRACK 46 AUDIO
    TITLE "6:cjc124_2203"
    INDEX 01 00:45:65
  TRACK 47 AUDIO
    TITLE "0:"
    INDEX 01 00:47:72
  TRACK 48 AUDIO
    TITLE "5:cjc124_2204"
    INDEX 01 00:48:40
  TRACK 49 AUDIO
    TITLE "0:"
    INDEX 01 00:50:13
  TRACK 50 AUDIO
    TITLE "6:cjc124_2205"
    INDEX 01 00:50:29
  TRACK 51 AUDIO
    TITLE "0:"
    INDEX 01 00:52:06
  TRACK 52 AUDIO
    TITLE "5:cjc124_2206"
    INDEX 01 00:52:43
  TRACK 53 AUDIO
    TITLE "0:"
    INDEX 01 00:54:30
  TRACK 54 AUDIO
    TITLE "6:cjc124_2207"
    INDEX 01 00:54:46
  TRACK 55 AUDIO
    TITLE "0:"
    INDEX 01 00:56:02
  TRACK 56 AUDIO
    TITLE "5:cjc124_2208"
    INDEX 01 00:56:43
  TRACK 57 AUDIO
    TITLE "0:"
    INDEX 01 00:58:24
  TRACK 58 AUDIO
    TITLE "6:cjc124_2209"
    INDEX 01 00:58:52
  TRACK 59 AUDIO
    TITLE "0:"
    INDEX 01 01:00:47
  TRACK 60 AUDIO
    TITLE "5:cjc124_2210"
    INDEX 01 01:01:09
  TRACK 61 AUDIO
    TITLE "0:"
    INDEX 01 01:03:06
  TRACK 62 AUDIO
    TITLE "6:cjc124_2211"
    INDEX 01 01:03:24
  TRACK 63 AUDIO
    TITLE "0:"
    INDEX 01 01:05:09
  TRACK 64 AUDIO
    TITLE "5:cjc124_2212"
    INDEX 01 01:05:46
  TRACK 65 AUDIO
    TITLE "0:"
    INDEX 01 01:07:37
  TRACK 66 AUDIO
    TITLE "6:cjc124_2213"
    INDEX 01 01:07:51
  TRACK 67 AUDIO
    TITLE "0:"
    INDEX 01 01:09:42
